<svg width="38" height="40" viewBox="0 0 38 40" fill="none" xmlns="http://www.w3.org/2000/svg">
<path d="M23.8341 1.8432L20.0977 0.833252L16.9489 12.6875L14.1063 1.9854L10.3698 2.99535L13.4412 14.5581L5.79118 6.84104L3.05595 9.60028L11.447 18.065L0.997257 15.2405L-0.00390625 19.0096L11.4138 22.0958C11.283 21.527 11.2139 20.9344 11.2139 20.3255C11.2139 16.0153 14.6776 12.5212 18.9504 12.5212C23.2231 12.5212 26.6868 16.0153 26.6868 20.3255C26.6868 20.9305 26.6185 21.5195 26.4894 22.0849L36.866 24.8896L37.8671 21.1205L26.404 18.022L36.8545 15.1972L35.8533 11.4281L24.3907 14.5264L32.0406 6.80932L29.3054 4.05013L21.0307 12.3975L23.8341 1.8432Z" fill="#101113"/>
<path d="M26.4787 22.1287C26.1583 23.4949 25.482 24.7222 24.5541 25.7055L32.0714 33.2889L34.8067 30.5297L26.4787 22.1287Z" fill="#101113"/>
<path d="M24.4782 25.7849C23.539 26.7525 22.3522 27.4746 21.0212 27.8468L23.7567 38.145L27.493 37.135L24.4782 25.7849Z" fill="#101113"/>
<path d="M20.8817 27.8846C20.2642 28.0447 19.6169 28.1298 18.95 28.1298C18.2354 28.1298 17.5434 28.0321 16.8865 27.8491L14.1486 38.1568L17.8849 39.1667L20.8817 27.8846Z" fill="#101113"/>
<path d="M16.7543 27.8111C15.4437 27.4205 14.2779 26.6892 13.358 25.7188L5.82208 33.3207L8.55731 36.08L16.7543 27.8111Z" fill="#101113"/>
<path d="M13.2958 25.6515C12.3916 24.675 11.733 23.464 11.4195 22.1189L1.00903 24.9329L2.01019 28.702L13.2958 25.6515Z" fill="#101113"/>
</svg>
